<?xml version="1.0" standalone="no"?>
<!DOCTYPE svg PUBLIC "-//W3C//DTD SVG 20010904//EN"
 "http://www.w3.org/TR/2001/REC-SVG-20010904/DTD/svg10.dtd">
<svg version="1.0" xmlns="http://www.w3.org/2000/svg"
 width="710.000000pt" height="710.000000pt" viewBox="0 0 710.000000 710.000000"
 preserveAspectRatio="xMidYMid meet">

<g transform="translate(0.000000,710.000000) scale(0.100000,-0.100000)"
fill="#000000" stroke="none">
<path d="M2569 6812 c-30 -32 -95 -119 -145 -193 -308 -456 -482 -831 -669
-1448 l-62 -205 -62 -48 c-94 -75 -97 -135 -6 -130 41 2 46 0 41 -15 -17 -45
-48 -260 -52 -364 -3 -77 -12 -148 -29 -213 -15 -58 -25 -127 -25 -167 0 -65
1 -69 23 -69 13 0 38 11 57 25 51 38 51 34 -2 -39 -30 -41 -68 -135 -68 -166
0 -30 20 -24 63 18 l39 37 -42 -84 c-50 -101 -57 -153 -40 -288 8 -54 12 -141
11 -193 -3 -141 -21 -173 -171 -301 -66 -56 -120 -107 -120 -113 1 -33 18 -40
70 -28 74 17 74 17 40 -33 -39 -56 -69 -123 -70 -152 0 -17 -19 -30 -94 -67
-51 -25 -99 -53 -106 -61 -29 -35 -53 -99 -80 -217 -40 -170 -44 -204 -27
-259 22 -70 117 -224 194 -314 37 -44 78 -93 89 -110 l21 -30 -25 -51 c-22
-45 -24 -59 -18 -116 9 -86 34 -123 99 -153 60 -28 118 -32 197 -11 53 14 54
14 74 -12 12 -15 61 -73 110 -130 89 -104 118 -121 124 -74 2 12 6 22 9 22 2
0 30 -23 61 -51 66 -60 112 -82 202 -99 61 -11 73 -9 165 15 125 33 151 41
195 54 l35 11 -40 -36 c-22 -19 -71 -63 -108 -96 -56 -50 -68 -65 -65 -87 3
-24 7 -26 46 -25 l43 1 -26 -27 c-28 -29 -31 -53 -12 -93 34 -75 866 -425
1022 -430 43 -2 65 7 299 112 41 19 72 27 76 22 7 -12 10 -11 206 101 82 47
185 105 229 128 166 89 266 143 338 183 38 21 63 36 138 79 12 7 32 21 43 30
10 10 23 15 28 12 4 -3 8 0 8 6 0 6 5 8 10 5 6 -3 10 -1 10 4 0 6 6 11 14 11
8 0 21 6 29 14 7 8 46 28 86 45 79 34 120 61 138 94 23 41 15 66 -36 116 l-50
49 45 12 c27 8 52 23 61 37 15 22 14 25 -8 49 -13 14 -62 45 -110 68 l-86 44
63 53 c132 112 259 280 251 333 -2 17 0 38 6 47 6 9 7 24 4 32 -6 17 -97 66
-160 86 l-37 13 57 42 c207 153 394 460 418 688 6 58 5 68 -13 86 -11 11 -24
21 -30 23 -5 2 25 74 67 159 68 137 126 285 134 345 2 11 9 31 16 44 12 23 11
27 -13 47 -38 34 -178 75 -272 81 -70 5 -186 -7 -227 -23 -8 -3 0 23 19 63 44
93 81 210 100 312 8 47 24 114 36 148 25 78 20 97 -26 91 l-34 -4 45 56 c155
191 218 308 370 680 144 354 227 762 240 1180 9 271 -21 474 -91 632 -60 134
-103 123 -411 -105 -235 -174 -390 -297 -615 -492 -96 -83 -233 -196 -305
-250 -71 -54 -256 -198 -410 -320 -440 -347 -426 -337 -446 -323 -78 59 -301
233 -371 291 -65 53 -91 82 -102 112 -8 22 -45 119 -81 215 -87 228 -146 399
-196 574 -64 224 -99 325 -145 417 -71 143 -93 151 -175 61z m3041 -683 c0
-62 -7 -140 -15 -178 -8 -36 -29 -138 -46 -226 -39 -199 -67 -312 -123 -485
-40 -123 -77 -260 -70 -260 2 0 21 31 44 68 36 62 74 112 85 112 9 0 -11 -83
-42 -175 -56 -163 -182 -398 -297 -551 -53 -73 -99 -154 -91 -163 9 -8 93 84
161 174 45 61 147 228 157 259 2 6 34 -14 70 -43 51 -41 66 -59 61 -73 -16
-53 -106 -230 -131 -259 -16 -19 -47 -59 -68 -89 -83 -117 -198 -250 -314
-364 -164 -161 -162 -171 15 -75 62 33 138 84 170 112 l58 52 -41 -60 c-23
-33 -85 -109 -138 -170 -107 -122 -131 -153 -122 -162 12 -11 92 51 190 147
53 53 97 93 97 90 0 -38 -129 -360 -156 -391 -18 -20 -18 -49 0 -49 7 0 33 9
57 19 59 26 198 45 272 37 77 -8 181 -36 170 -47 -4 -4 -98 -37 -208 -74 -110
-37 -206 -72 -213 -78 -40 -33 96 -18 353 37 38 8 71 13 73 12 5 -6 -43 -126
-91 -228 -63 -135 -138 -259 -261 -432 -95 -134 -119 -176 -100 -176 19 0 133
89 218 170 96 92 98 94 92 60 -15 -71 -39 -137 -83 -221 -84 -161 -205 -302
-362 -422 -52 -40 -96 -77 -98 -83 -2 -7 21 -14 62 -18 36 -4 92 -16 123 -28
l57 -22 -115 -36 c-123 -39 -180 -64 -180 -80 0 -6 9 -10 19 -10 10 0 22 -7
25 -16 6 -14 18 -16 89 -11 45 3 101 12 125 21 23 8 42 12 42 8 0 -19 -139
-178 -254 -291 -70 -68 -124 -126 -121 -129 3 -3 23 4 45 17 l39 22 91 -42
c50 -23 87 -46 83 -50 -6 -6 -163 -49 -178 -49 -2 0 -5 -7 -9 -15 -4 -10 6
-18 37 -26 68 -18 119 -53 148 -102 9 -15 2 -21 -48 -44 -32 -14 -110 -59
-173 -98 -194 -121 -337 -204 -515 -296 -314 -163 -791 -379 -835 -379 -15 0
-79 16 -141 35 -235 71 -777 291 -760 308 19 19 12 28 -35 49 l-46 20 56 57
c31 31 56 62 56 69 0 8 -18 12 -52 12 l-51 0 59 46 c70 54 74 60 74 100 0 35
1 36 245 94 160 38 555 168 555 182 0 7 -13 8 -32 4 -18 -4 -64 -11 -103 -16
-172 -24 -425 -90 -825 -215 -193 -60 -268 -70 -334 -45 -16 6 -74 47 -130 93
-56 45 -111 88 -124 95 -22 12 -29 5 -14 -14 4 -6 -16 13 -44 42 -28 28 -60
65 -71 80 l-20 29 111 103 c105 97 267 217 357 263 24 12 39 25 36 33 -6 14
89 26 205 26 49 0 58 -3 58 -17 0 -24 36 -83 69 -111 36 -33 115 -72 145 -72
34 0 46 26 47 97 0 78 18 129 44 125 83 -11 293 37 520 120 154 56 188 78 225
144 28 50 32 67 39 177 8 120 6 237 -4 349 l-6 57 50 33 c28 18 51 37 51 41 0
15 -32 19 -69 8 -64 -19 -114 -64 -220 -198 -56 -70 -135 -166 -176 -213 -40
-47 -111 -132 -157 -190 -129 -163 -245 -250 -379 -287 -57 -16 -114 -18 -494
-18 -236 0 -446 3 -465 8 -31 6 -40 15 -63 63 -16 31 -27 57 -25 58 2 2 23 14
48 28 50 29 190 168 190 189 0 7 -14 27 -31 45 -60 62 -6 110 114 101 l69 -5
39 40 c45 47 86 126 95 184 5 35 3 45 -17 65 -13 13 -23 29 -21 35 3 14 -97
41 -222 60 -73 11 -133 14 -216 9 -63 -4 -113 -5 -110 -2 3 3 102 44 221 90
231 91 352 147 385 178 11 10 25 19 32 19 41 0 59 327 28 506 -19 106 -41 185
-66 235 -18 34 -18 36 0 65 25 39 80 79 105 76 30 -4 187 71 283 135 80 53
272 225 272 244 0 18 -20 7 -116 -67 -120 -93 -190 -140 -269 -185 l-60 -33
78 87 c80 91 97 122 49 92 -69 -44 -235 -178 -314 -254 -28 -26 -48 -39 -48
-31 0 8 11 51 25 95 30 96 31 113 10 95 -8 -7 -15 -8 -15 -3 0 5 -16 28 -35
50 -39 45 -109 83 -156 83 -27 0 -30 3 -24 23 12 37 46 88 113 170 80 97 63
102 -64 19 -91 -60 -274 -203 -308 -241 -48 -54 -45 4 9 166 101 302 281 517
502 599 37 14 73 31 78 38 6 7 19 18 30 24 47 27 -156 9 -549 -47 -59 -8 -59
-8 -35 11 48 38 341 177 446 212 225 74 444 104 640 87 128 -12 199 -28 332
-78 l94 -35 18 23 c17 23 17 24 -62 106 -88 92 -170 211 -225 327 -34 72 -37
96 -11 96 7 0 53 -37 102 -82 153 -140 214 -190 385 -318 91 -67 169 -126 173
-130 9 -8 -174 -376 -259 -520 -51 -86 -55 -91 -49 -55 3 22 9 48 12 59 9 32
-16 7 -33 -32 -8 -20 -18 -39 -22 -42 -4 -3 -34 -39 -67 -80 -33 -41 -66 -81
-75 -90 -28 -28 -62 -80 -52 -80 14 0 130 127 164 179 l29 46 -6 -45 c-7 -54
6 -80 32 -64 10 6 47 65 83 132 36 67 73 127 82 134 9 7 26 35 37 61 12 26 57
115 101 196 l80 148 102 78 c57 44 193 151 303 240 238 192 437 346 441 343 1
-2 11 -46 22 -98 23 -110 54 -197 84 -235 27 -35 40 -17 33 45 l-5 45 17 -45
16 -44 -169 -165 c-93 -90 -260 -245 -371 -343 -222 -196 -278 -256 -269 -286
6 -19 21 -20 264 -24 141 -3 268 -10 281 -15 l25 -10 -30 -8 c-16 -4 -74 -13
-129 -19 -89 -10 -100 -13 -100 -31 0 -16 13 -22 80 -35 109 -22 179 -46 251
-86 70 -38 176 -134 156 -141 -7 -3 -47 11 -88 31 -42 20 -82 36 -90 36 -28 0
-13 -20 39 -53 62 -40 123 -105 163 -173 27 -46 29 -47 32 -23 2 16 -7 41 -22
64 -46 68 -46 99 0 74 23 -12 27 -11 40 5 19 26 -1 62 -78 137 -57 55 -169
122 -238 143 -23 7 -22 8 20 22 51 16 72 30 88 60 30 56 -48 75 -340 81 l-227
6 38 28 c61 44 353 323 870 832 491 484 614 611 683 710 60 84 68 78 68 -54z
m-2715 -659 c37 -73 109 -184 155 -240 l38 -46 -83 28 c-103 35 -256 52 -398
45 -78 -3 -107 -2 -104 7 2 6 19 59 37 117 l33 107 56 26 c31 15 92 37 136 49
l80 23 11 -31 c6 -17 24 -55 39 -85z m-389 16 c3 -8 13 -12 25 -9 24 7 24 7
-11 -94 -16 -46 -30 -93 -30 -103 0 -10 -4 -21 -8 -24 -4 -2 -62 -16 -129 -30
-163 -33 -280 -74 -450 -156 l-141 -68 18 57 c11 31 42 126 69 211 l51 155
112 28 c62 16 123 31 135 34 19 4 21 1 20 -29 -2 -32 -1 -33 36 -30 21 2 88
18 150 36 130 39 146 41 153 22z m-501 -645 c-6 -5 -38 -32 -73 -60 -75 -63
-154 -156 -207 -246 -21 -36 -40 -63 -42 -61 -7 6 14 129 39 238 l19 87 52 10
c74 15 200 38 212 40 6 1 6 -2 0 -8z m3552 -124 c2 -3 -1 -16 -8 -30 l-12 -26
-40 52 c-22 29 -44 58 -50 65 -8 10 96 -48 110 -61z m-3684 -557 c-13 -27 -29
-50 -36 -50 -7 0 -35 -14 -61 -31 -27 -16 -50 -29 -52 -27 -2 2 161 151 172
157 1 1 -10 -21 -23 -49z m115 -241 c26 -7 49 -13 51 -15 2 -2 -13 -23 -33
-47 -25 -30 -46 -46 -66 -49 -33 -5 -36 0 -46 72 -6 49 -6 50 20 50 15 0 48
-5 74 -11z m-139 -151 c8 -22 3 -40 -30 -105 -57 -112 -72 -196 -66 -373 4
-122 8 -157 30 -218 30 -86 80 -173 111 -192 18 -12 19 -11 9 2 -7 8 -10 18
-7 21 3 3 -4 20 -16 37 -74 104 -101 346 -60 535 24 107 64 195 89 195 10 0
28 11 41 25 13 14 34 25 47 25 31 0 78 -66 103 -148 24 -78 24 -75 1 -62 -87
46 -177 -54 -195 -215 -13 -118 30 -308 84 -365 33 -35 34 -34 -70 -70 -49
-17 -382 -153 -508 -207 -20 -9 23 73 67 127 20 24 58 66 85 92 26 25 46 51
42 56 -3 5 -42 -1 -93 -14 -48 -13 -88 -22 -90 -20 -2 2 9 11 24 21 95 61 182
162 198 228 4 15 14 31 23 36 16 9 15 43 -4 376 -8 129 -7 130 96 268 l65 86
7 -57 c5 -31 12 -69 17 -84z m230 59 c-12 -49 -15 -53 -31 -43 -10 6 -18 14
-18 19 0 12 52 88 57 83 3 -2 -1 -29 -8 -59z m10 -332 c34 -17 50 -56 58 -142
8 -80 -10 -113 -62 -113 -29 0 -39 6 -55 32 -45 74 -46 202 -2 227 23 14 28
13 61 -4z m1420 -1207 c1 -113 -2 -208 -6 -210 -5 -1 -16 -19 -26 -38 -21 -42
-51 -60 -182 -110 -165 -62 -473 -156 -482 -147 -2 2 23 22 54 44 32 23 85 69
118 104 33 35 67 64 75 64 8 0 17 11 18 24 2 13 29 54 61 90 31 36 102 125
157 196 56 72 123 154 150 184 47 52 49 53 55 30 4 -13 7 -117 8 -231z m-2342
-92 c40 -56 179 -173 235 -199 26 -12 48 -25 48 -29 0 -3 25 -21 55 -38 40
-23 55 -37 55 -53 0 -12 9 -42 20 -66 11 -24 20 -47 20 -51 0 -10 -39 -25
-138 -51 l-83 -21 -42 28 c-74 51 -121 107 -174 209 -66 127 -75 167 -61 268
10 70 13 77 24 61 7 -11 26 -36 41 -58z m1529 -483 c-4 -16 -9 -56 -13 -90
l-6 -61 -31 11 c-39 13 -136 111 -136 137 0 17 9 20 88 23 48 1 91 4 96 5 4 1
5 -10 2 -25z m-840 -9 c143 -8 256 -8 283 1 47 15 16 -6 -71 -48 -118 -56
-198 -116 -299 -227 -93 -101 -126 -119 -235 -127 -120 -9 -178 34 -178 131 0
80 33 128 128 187 44 27 81 47 84 45 2 -2 -4 -16 -13 -30 -10 -14 -14 -26 -10
-26 12 0 125 91 125 101 0 7 15 9 38 5 20 -3 87 -8 148 -12z m-466 -80 c0 -2
-7 -4 -15 -4 -8 0 -15 4 -15 10 0 5 7 7 15 4 8 -4 15 -8 15 -10z"/>
<path d="M5147 4338 c-20 -48 -97 -128 -198 -209 -49 -39 -89 -77 -89 -84 0
-8 -6 -16 -12 -19 -7 -3 2 -5 20 -3 56 6 35 -10 -58 -44 -68 -24 -90 -36 -90
-50 0 -10 5 -21 11 -25 6 -3 20 -27 31 -51 24 -55 41 -45 41 22 0 31 5 45 14
45 31 0 145 54 160 76 19 29 11 54 -18 54 -17 0 -11 8 28 39 112 90 203 203
203 252 0 40 -26 38 -43 -3z"/>
<path d="M3631 4079 c-188 -22 -323 -83 -448 -202 -123 -118 -175 -211 -118
-213 11 0 33 -6 48 -12 16 -7 31 -12 35 -12 4 0 61 40 126 89 192 143 328 205
541 246 100 20 117 29 113 59 -6 38 -156 61 -297 45z"/>
<path d="M4620 4035 c0 -26 70 -156 80 -150 13 8 13 29 -2 77 -18 59 -78 116
-78 73z"/>
<path d="M3700 3876 c0 -3 21 -27 48 -54 53 -55 129 -184 168 -285 14 -38 28
-66 30 -64 2 2 -3 30 -12 63 -25 97 -93 223 -154 287 -48 48 -80 70 -80 53z"/>
<path d="M3068 3398 c-5 -227 14 -589 31 -616 3 -5 15 -12 27 -16 16 -5 33 5
73 43 60 58 231 176 311 216 l55 27 -47 -48 c-55 -58 -94 -123 -72 -120 8 1
40 27 72 58 80 77 156 135 226 170 64 32 251 84 343 95 33 3 50 9 42 13 -36
20 -202 45 -289 44 -102 -1 -99 4 19 33 78 19 93 29 60 41 -21 8 -189 25 -246
24 -52 0 -243 -110 -357 -206 -26 -23 -75 -74 -107 -114 -33 -40 -59 -72 -59
-70 0 2 -9 50 -20 108 -11 58 -26 169 -32 248 -7 78 -16 142 -20 142 -4 0 -9
-33 -10 -72z"/>
<path d="M4338 3243 c-81 -21 -75 -38 10 -29 72 8 97 20 72 36 -8 5 -17 9 -20
9 -3 -1 -31 -8 -62 -16z"/>
<path d="M4331 3136 c-22 -12 -20 -14 35 -20 33 -4 67 -9 77 -11 27 -5 8 16
-29 31 -41 17 -52 17 -83 0z"/>
<path d="M3017 1084 c-3 -3 -1 -22 4 -42 11 -50 -10 -79 -117 -162 -46 -36
-83 -72 -84 -81 0 -19 28 -29 83 -29 57 0 128 -20 120 -34 -4 -6 1 -5 10 3 24
19 21 48 -5 57 -13 4 -50 10 -83 13 l-60 6 76 52 c106 72 128 112 100 180 -12
30 -33 47 -44 37z"/>
<path d="M3622 980 c0 -14 2 -19 5 -12 2 6 2 18 0 25 -3 6 -5 1 -5 -13z"/>
<path d="M1650 2951 c0 -27 31 -34 68 -15 46 22 40 34 -18 34 -43 0 -50 -3
-50 -19z"/>
<path d="M3426 2128 c-35 -41 -38 -42 -68 -30 -41 15 -47 8 -19 -22 47 -50 86
-35 130 53 29 56 5 56 -43 -1z"/>
<path d="M3295 2120 c-3 -5 -1 -10 4 -10 6 0 11 5 11 10 0 6 -2 10 -4 10 -3 0
-8 -4 -11 -10z"/>
<path d="M3260 2072 c0 -7 -4 -11 -9 -9 -5 1 -25 -19 -45 -45 -27 -34 -41 -46
-57 -43 -13 3 -19 0 -16 -8 7 -23 39 -19 69 10 36 34 73 92 64 100 -3 4 -6 1
-6 -5z"/>
<path d="M3029 1953 c-13 -16 -12 -17 4 -4 16 13 21 21 13 21 -2 0 -10 -8 -17
-17z"/>
<path d="M1908 1604 c-16 -8 -28 -20 -28 -26 0 -6 -2 -9 -5 -6 -4 3 -27 -14
-53 -38 -26 -24 -69 -64 -96 -89 -28 -25 -45 -45 -39 -45 8 0 130 104 248 211
13 13 4 10 -27 -7z"/>
</g>
</svg>
